<svg xmlns="http://www.w3.org/2000/svg" viewBox="0 0 1600 900" fill="none">
  <defs>
    <linearGradient id="intro-bg" x1="80" x2="1488" y1="48" y2="850" gradientUnits="userSpaceOnUse">
      <stop stop-color="#0f766e" />
      <stop offset="0.46" stop-color="#0e7490" />
      <stop offset="1" stop-color="#1d4ed8" />
    </linearGradient>
    <radialGradient
      id="intro-warm"
      cx="0"
      cy="0"
      r="1"
      gradientTransform="matrix(0 360 -460 0 304 130)"
      gradientUnits="userSpaceOnUse"
    >
      <stop stop-color="#fff7ed" stop-opacity="0.34" />
      <stop offset="1" stop-color="#fff7ed" stop-opacity="0" />
    </radialGradient>
    <linearGradient id="mark-bg" x1="154" x2="462" y1="134" y2="506" gradientUnits="userSpaceOnUse">
      <stop stop-color="#8be7ff" />
      <stop offset="0.46" stop-color="#38bdf8" />
      <stop offset="1" stop-color="#2563eb" />
    </linearGradient>
    <linearGradient id="mark-note" x1="276" x2="422" y1="182" y2="444" gradientUnits="userSpaceOnUse">
      <stop stop-color="#164e63" />
      <stop offset="1" stop-color="#082f49" />
    </linearGradient>
    <filter
      id="panel-shadow"
      x="48"
      y="56"
      width="1504"
      height="792"
      color-interpolation-filters="sRGB"
      filterUnits="userSpaceOnUse"
    >
      <feDropShadow dx="0" dy="38" stdDeviation="40" flood-color="#020617" flood-opacity="0.28" />
    </filter>
  </defs>
  <rect width="1600" height="900" rx="48" fill="url(#intro-bg)" />
  <rect width="1600" height="900" rx="48" fill="url(#intro-warm)" />
  <circle cx="1340" cy="170" r="270" fill="#67e8f9" opacity="0.12" />
  <circle cx="1440" cy="750" r="330" fill="#fff7ed" opacity="0.08" />
  <g filter="url(#panel-shadow)">
    <rect
      x="96"
      y="96"
      width="1408"
      height="708"
      rx="48"
      fill="#061526"
      fill-opacity="0.5"
      stroke="#e0f2fe"
      stroke-opacity="0.12"
    />
  </g>
  <circle cx="320" cy="320" r="184" fill="url(#mark-bg)" />
  <circle cx="320" cy="320" r="184" fill="#fff7ed" opacity="0.12" />
  <path d="M350 210v158a54 54 0 1 1-31-49v-76l90-18v42l-59 12Z" fill="url(#mark-note)" />
  <text
    x="560"
    y="276"
    fill="#f0f9ff"
    font-family="Avenir Next, Inter, PingFang SC, Microsoft YaHei, Arial, sans-serif"
    font-size="112"
    font-weight="800"
  >
    CCCTW Music
  </text>
  <text
    x="566"
    y="342"
    fill="#cffafe"
    fill-opacity="0.84"
    font-family="Avenir Next, Inter, PingFang SC, Microsoft YaHei, Arial, sans-serif"
    font-size="34"
    font-weight="600"
  >
    Web / Desktop / Mobile music player
  </text>
  <g transform="translate(560 430)">
    <rect width="250" height="158" rx="30" fill="#082f49" fill-opacity="0.7" stroke="#67e8f9" stroke-opacity="0.2" />
    <circle cx="82" cy="78" r="44" fill="#38bdf8" />
    <path d="M96 50v58a20 20 0 1 1-11-18V62l38-8v18l-27 5Z" fill="#082f49" />
    <rect x="142" y="58" width="70" height="10" rx="5" fill="#e0f2fe" opacity="0.72" />
    <rect x="142" y="88" width="48" height="8" rx="4" fill="#67e8f9" opacity="0.72" />
    <text
      x="88"
      y="210"
      fill="#f0f9ff"
      font-family="Avenir Next, Inter, PingFang SC, Microsoft YaHei, Arial, sans-serif"
      font-size="28"
      font-weight="800"
    >
      Web
    </text>
  </g>
  <g transform="translate(884 400)">
    <rect width="180" height="270" rx="40" fill="#082f49" fill-opacity="0.7" stroke="#67e8f9" stroke-opacity="0.2" />
    <circle cx="90" cy="102" r="46" fill="#38bdf8" />
    <path d="M103 74v58a20 20 0 1 1-11-18V86l38-8v18l-27 5Z" fill="#082f49" />
    <rect x="50" y="176" width="82" height="9" rx="4.5" fill="#e0f2fe" opacity="0.72" />
    <text
      x="44"
      y="316"
      fill="#f0f9ff"
      font-family="Avenir Next, Inter, PingFang SC, Microsoft YaHei, Arial, sans-serif"
      font-size="28"
      font-weight="800"
    >
      Mobile
    </text>
  </g>
  <g transform="translate(1130 430)">
    <rect width="250" height="158" rx="30" fill="#082f49" fill-opacity="0.7" stroke="#67e8f9" stroke-opacity="0.2" />
    <circle cx="82" cy="78" r="44" fill="#38bdf8" />
    <path d="M96 50v58a20 20 0 1 1-11-18V62l38-8v18l-27 5Z" fill="#082f49" />
    <rect x="142" y="58" width="70" height="10" rx="5" fill="#e0f2fe" opacity="0.72" />
    <rect x="142" y="88" width="48" height="8" rx="4" fill="#67e8f9" opacity="0.72" />
    <text
      x="66"
      y="210"
      fill="#f0f9ff"
      font-family="Avenir Next, Inter, PingFang SC, Microsoft YaHei, Arial, sans-serif"
      font-size="28"
      font-weight="800"
    >
      Desktop
    </text>
  </g>
</svg>
