<svg xmlns="http://www.w3.org/2000/svg" viewBox="0 0 1600 1180" fill="none">
  <defs>
    <linearGradient id="sheet-bg" x1="112" x2="1500" y1="52" y2="1118" gradientUnits="userSpaceOnUse">
      <stop stop-color="#0d4f76" />
      <stop offset="0.5" stop-color="#08263e" />
      <stop offset="1" stop-color="#04111f" />
    </linearGradient>
    <linearGradient id="icon-bg" x1="0" x2="1" y1="0" y2="1">
      <stop stop-color="#0ea5e9" />
      <stop offset="0.48" stop-color="#075985" />
      <stop offset="1" stop-color="#04111f" />
    </linearGradient>
    <linearGradient id="icon-bg-soft" x1="0" x2="1" y1="0" y2="1">
      <stop stop-color="#7dd3fc" />
      <stop offset="0.42" stop-color="#0ea5e9" />
      <stop offset="1" stop-color="#08263e" />
    </linearGradient>
    <linearGradient id="line-sky" x1="0" x2="1" y1="0" y2="1">
      <stop stop-color="#f0f9ff" />
      <stop offset="0.46" stop-color="#7dd3fc" />
      <stop offset="1" stop-color="#0ea5e9" />
    </linearGradient>
    <radialGradient
      id="soft-glow"
      cx="0"
      cy="0"
      r="1"
      gradientTransform="matrix(0 420 -500 0 430 120)"
      gradientUnits="userSpaceOnUse"
    >
      <stop stop-color="#7dd3fc" stop-opacity="0.38" />
      <stop offset="1" stop-color="#0ea5e9" stop-opacity="0" />
    </radialGradient>
    <filter
      id="card-shadow"
      x="-24"
      y="-24"
      width="548"
      height="408"
      color-interpolation-filters="sRGB"
      filterUnits="userSpaceOnUse"
    >
      <feDropShadow dx="0" dy="24" stdDeviation="26" flood-color="#020617" flood-opacity="0.32" />
    </filter>
    <style>
      .title {
        font-family:
          Avenir Next,
          Inter,
          PingFang SC,
          Microsoft YaHei,
          Arial,
          sans-serif;
        font-weight: 800;
      }
      .body {
        font-family:
          Avenir Next,
          Inter,
          PingFang SC,
          Microsoft YaHei,
          Arial,
          sans-serif;
        font-weight: 600;
      }
      .small {
        font-family:
          Avenir Next,
          Inter,
          PingFang SC,
          Microsoft YaHei,
          Arial,
          sans-serif;
        font-weight: 700;
      }
    </style>
  </defs>

  <rect width="1600" height="1180" rx="48" fill="url(#sheet-bg)" />
  <rect width="1600" height="1180" rx="48" fill="url(#soft-glow)" />
  <circle cx="1352" cy="164" r="302" fill="#7dd3fc" opacity="0.08" />
  <circle cx="1522" cy="1030" r="420" fill="#0ea5e9" opacity="0.1" />

  <text x="90" y="104" class="title" fill="#f0f9ff" font-size="54">CCCTW Music Logo Options</text>
  <text x="92" y="150" class="body" fill="#bae6fd" fill-opacity="0.78" font-size="24">
    Choose one direction first. Final favicon, mobile, desktop, and intro assets will be generated after selection.
  </text>

  <g transform="translate(80 210)">
    <g filter="url(#card-shadow)">
      <rect
        width="460"
        height="350"
        rx="28"
        fill="#061526"
        fill-opacity="0.78"
        stroke="#bae6fd"
        stroke-opacity="0.13"
      />
    </g>
    <rect x="36" y="36" width="176" height="176" rx="44" fill="url(#icon-bg)" />
    <path
      d="M58 74c46-34 104-34 150-3 46 31 70 85 58 138 26-27 40-64 36-103C296 43 245 4 178 0 126-3 83 20 58 74Z"
      fill="#e0f2fe"
      opacity="0.15"
    />
    <circle
      cx="124"
      cy="124"
      r="61"
      stroke="url(#line-sky)"
      stroke-width="19"
      stroke-linecap="round"
      stroke-dasharray="272 110"
      transform="rotate(-34 124 124)"
    />
    <path d="M106 86c0-8 9-13 16-9l55 32c7 4 7 14 0 18l-55 32c-7 4-16-1-16-9V86Z" fill="#f0f9ff" />
    <circle cx="76" cy="78" r="7" fill="#e0f2fe" />
    <circle cx="178" cy="88" r="6" fill="#7dd3fc" />
    <text x="238" y="64" class="small" fill="#7dd3fc" font-size="22">Option 1</text>
    <text x="238" y="104" class="title" fill="#f0f9ff" font-size="34">Orbit Play</text>
    <text x="238" y="142" class="body" fill="#bae6fd" fill-opacity="0.78" font-size="18">
      C-shaped orbit plus play core.
    </text>
    <text x="238" y="172" class="body" fill="#bae6fd" fill-opacity="0.62" font-size="17">
      Best for favicon + app icon.
    </text>
    <text x="38" y="282" class="title" fill="#f0f9ff" font-size="32">
      CCCTW
      <tspan fill="#7dd3fc">Music</tspan>
    </text>
    <text x="40" y="314" class="body" fill="#bae6fd" fill-opacity="0.68" font-size="17">
      Multi-source music workspace
    </text>
  </g>

  <g transform="translate(570 210)">
    <g filter="url(#card-shadow)">
      <rect
        width="460"
        height="350"
        rx="28"
        fill="#061526"
        fill-opacity="0.78"
        stroke="#bae6fd"
        stroke-opacity="0.13"
      />
    </g>
    <rect x="36" y="36" width="176" height="176" rx="44" fill="#071a2d" />
    <path d="M76 86c-26 18-38 56-22 86 17 32 58 44 90 30" stroke="#7dd3fc" stroke-width="18" stroke-linecap="round" />
    <rect x="116" y="67" width="16" height="98" rx="8" fill="#f0f9ff" />
    <rect x="144" y="94" width="16" height="71" rx="8" fill="#bae6fd" />
    <rect x="172" y="74" width="16" height="91" rx="8" fill="#38bdf8" />
    <rect x="88" y="120" width="16" height="45" rx="8" fill="#0ea5e9" />
    <path d="M76 184h116" stroke="#0ea5e9" stroke-width="12" stroke-linecap="round" opacity="0.72" />
    <text x="238" y="64" class="small" fill="#7dd3fc" font-size="22">Option 2</text>
    <text x="238" y="104" class="title" fill="#f0f9ff" font-size="34">Wave C</text>
    <text x="238" y="142" class="body" fill="#bae6fd" fill-opacity="0.78" font-size="18">
      Equalizer bars inside a C mark.
    </text>
    <text x="238" y="172" class="body" fill="#bae6fd" fill-opacity="0.62" font-size="17">
      More audio-tool, less generic music.
    </text>
    <text x="38" y="282" class="title" fill="#f0f9ff" font-size="32">
      CCCTW
      <tspan fill="#7dd3fc">Music</tspan>
    </text>
    <text x="40" y="314" class="body" fill="#bae6fd" fill-opacity="0.68" font-size="17">
      Search, queue, lyrics, playback
    </text>
  </g>

  <g transform="translate(1060 210)">
    <g filter="url(#card-shadow)">
      <rect
        width="460"
        height="350"
        rx="28"
        fill="#061526"
        fill-opacity="0.78"
        stroke="#bae6fd"
        stroke-opacity="0.13"
      />
    </g>
    <rect x="36" y="36" width="176" height="176" rx="44" fill="url(#icon-bg-soft)" />
    <path
      d="M84 84l42 38 52-50"
      stroke="#bae6fd"
      stroke-width="9"
      stroke-linecap="round"
      stroke-linejoin="round"
      opacity="0.78"
    />
    <path d="M84 164l42-42 52 40" stroke="#f0f9ff" stroke-width="9" stroke-linecap="round" stroke-linejoin="round" />
    <circle cx="76" cy="78" r="21" fill="#e0f2fe" />
    <circle cx="180" cy="72" r="21" fill="#7dd3fc" />
    <circle cx="76" cy="170" r="21" fill="#38bdf8" />
    <circle cx="128" cy="122" r="36" fill="#061526" fill-opacity="0.72" stroke="#f0f9ff" stroke-opacity="0.38" />
    <path d="M118 99v47l39-24-39-23Z" fill="#f0f9ff" />
    <text x="238" y="64" class="small" fill="#7dd3fc" font-size="22">Option 3</text>
    <text x="238" y="104" class="title" fill="#f0f9ff" font-size="34">Source Hub</text>
    <text x="238" y="142" class="body" fill="#bae6fd" fill-opacity="0.78" font-size="18">
      Migu, NetEase, QQ converge.
    </text>
    <text x="238" y="172" class="body" fill="#bae6fd" fill-opacity="0.62" font-size="17">
      Best communicates aggregation.
    </text>
    <text x="38" y="282" class="title" fill="#f0f9ff" font-size="32">
      CCCTW
      <tspan fill="#7dd3fc">Music</tspan>
    </text>
    <text x="40" y="314" class="body" fill="#bae6fd" fill-opacity="0.68" font-size="17">
      One player, multiple providers
    </text>
  </g>

  <g transform="translate(80 610)">
    <g filter="url(#card-shadow)">
      <rect
        width="460"
        height="350"
        rx="28"
        fill="#061526"
        fill-opacity="0.78"
        stroke="#bae6fd"
        stroke-opacity="0.13"
      />
    </g>
    <rect x="36" y="36" width="176" height="176" rx="44" fill="#04111f" />
    <circle cx="124" cy="124" r="68" fill="#08263e" stroke="#38bdf8" stroke-width="11" />
    <circle cx="124" cy="124" r="24" fill="#0ea5e9" />
    <circle cx="124" cy="124" r="9" fill="#f0f9ff" />
    <path d="M148 66c24 6 44 22 56 44" stroke="#7dd3fc" stroke-width="12" stroke-linecap="round" />
    <path d="M64 168c-14-20-18-44-13-68" stroke="#bae6fd" stroke-width="12" stroke-linecap="round" />
    <path d="M118 101v46l39-23-39-23Z" fill="#f0f9ff" />
    <text x="238" y="64" class="small" fill="#7dd3fc" font-size="22">Option 4</text>
    <text x="238" y="104" class="title" fill="#f0f9ff" font-size="34">Disc Cloud</text>
    <text x="238" y="142" class="body" fill="#bae6fd" fill-opacity="0.78" font-size="18">
      Album disc with cloud-native feel.
    </text>
    <text x="238" y="172" class="body" fill="#bae6fd" fill-opacity="0.62" font-size="17">
      Works well for desktop branding.
    </text>
    <text x="38" y="282" class="title" fill="#f0f9ff" font-size="32">
      CCCTW
      <tspan fill="#7dd3fc">Music</tspan>
    </text>
    <text x="40" y="314" class="body" fill="#bae6fd" fill-opacity="0.68" font-size="17">
      Cloudflare-backed music app
    </text>
  </g>

  <g transform="translate(570 610)">
    <g filter="url(#card-shadow)">
      <rect
        width="460"
        height="350"
        rx="28"
        fill="#061526"
        fill-opacity="0.78"
        stroke="#bae6fd"
        stroke-opacity="0.13"
      />
    </g>
    <rect x="36" y="36" width="176" height="176" rx="44" fill="url(#icon-bg)" />
    <rect
      x="79"
      y="54"
      width="90"
      height="140"
      rx="24"
      fill="#061526"
      fill-opacity="0.72"
      stroke="#bae6fd"
      stroke-opacity="0.62"
      stroke-width="7"
    />
    <path d="M101 142c10-24 21-24 31 0s21 24 31 0" stroke="#7dd3fc" stroke-width="9" stroke-linecap="round" />
    <circle cx="124" cy="94" r="22" fill="#0ea5e9" />
    <path d="M119 82v24l20-12-20-12Z" fill="#f0f9ff" />
    <rect x="105" y="167" width="38" height="6" rx="3" fill="#e0f2fe" opacity="0.72" />
    <text x="238" y="64" class="small" fill="#7dd3fc" font-size="22">Option 5</text>
    <text x="238" y="104" class="title" fill="#f0f9ff" font-size="34">Pocket Player</text>
    <text x="238" y="142" class="body" fill="#bae6fd" fill-opacity="0.78" font-size="18">
      Mobile-first player identity.
    </text>
    <text x="238" y="172" class="body" fill="#bae6fd" fill-opacity="0.62" font-size="17">
      Best if phone app is the focus.
    </text>
    <text x="38" y="282" class="title" fill="#f0f9ff" font-size="32">
      CCCTW
      <tspan fill="#7dd3fc">Music</tspan>
    </text>
    <text x="40" y="314" class="body" fill="#bae6fd" fill-opacity="0.68" font-size="17">
      Web, iOS, Android, desktop
    </text>
  </g>

  <g transform="translate(1060 610)">
    <g filter="url(#card-shadow)">
      <rect
        width="460"
        height="350"
        rx="28"
        fill="#061526"
        fill-opacity="0.78"
        stroke="#bae6fd"
        stroke-opacity="0.13"
      />
    </g>
    <rect x="36" y="36" width="176" height="176" rx="44" fill="#071a2d" />
    <path
      d="M155 65c-30-20-71-17-98 10-34 34-34 89 0 123 27 27 68 30 98 10"
      stroke="url(#line-sky)"
      stroke-width="22"
      stroke-linecap="round"
    />
    <path
      d="M90 162V91l35 39 35-39v71"
      stroke="#f0f9ff"
      stroke-width="15"
      stroke-linecap="round"
      stroke-linejoin="round"
    />
    <circle cx="174" cy="124" r="9" fill="#0ea5e9" />
    <text x="238" y="64" class="small" fill="#7dd3fc" font-size="22">Option 6</text>
    <text x="238" y="104" class="title" fill="#f0f9ff" font-size="34">Minimal CM</text>
    <text x="238" y="142" class="body" fill="#bae6fd" fill-opacity="0.78" font-size="18">
      Compact C + Music monogram.
    </text>
    <text x="238" y="172" class="body" fill="#bae6fd" fill-opacity="0.62" font-size="17">
      Most restrained and scalable.
    </text>
    <text x="38" y="282" class="title" fill="#f0f9ff" font-size="32">
      CCCTW
      <tspan fill="#7dd3fc">Music</tspan>
    </text>
    <text x="40" y="314" class="body" fill="#bae6fd" fill-opacity="0.68" font-size="17">
      Clean mark for all surfaces
    </text>
  </g>

  <text x="92" y="1058" class="body" fill="#bae6fd" fill-opacity="0.72" font-size="22">
    My default recommendation: Option 3 if you want to emphasize multi-source aggregation; Option 1 if you want the
    strongest app icon.
  </text>
  <text x="92" y="1096" class="body" fill="#7dd3fc" fill-opacity="0.78" font-size="20">
    Reply with a number, or combine directions, for example: "3 with the simpler icon shape from 6".
  </text>
</svg>
